<svg width="100" height="136" viewBox="0 0 100 136" fill="none" xmlns="http://www.w3.org/2000/svg">
<path d="M100 86C100 113.614 77.6142 136 50 136C22.3858 136 0 113.614 0 86C0 58.3858 47 28 50 0C72.5 15 100 58.3858 100 86Z" fill="#E42B2B"/>
<path d="M100 86C100 113.614 77.6142 136 50 136C22.3858 136 0 113.614 0 86C0 58.3858 47 28 50 0C72.5 15 100 58.3858 100 86Z" fill="#E42B2B"/>
<path d="M77 87.1618C77 101.984 64.9117 114 50 114C35.0883 114 23 101.984 23 87.1618C23 72.3394 48.38 56.0294 50 41C62.15 49.0515 77 72.3394 77 87.1618Z" fill="#F8A221"/>
<path d="M77 87.1618C77 101.984 64.9117 114 50 114C35.0883 114 23 101.984 23 87.1618C23 72.3394 48.38 56.0294 50 41C62.15 49.0515 77 72.3394 77 87.1618Z" fill="#F8A221"/>
<path d="M66 92.1912C66 100.922 58.8366 108 50 108C41.1634 108 34 100.922 34 92.1912C34 83.4602 49.04 73.8529 50 65C57.2 69.7426 66 83.4602 66 92.1912Z" fill="#F8D421"/>
<path d="M66 92.1912C66 100.922 58.8366 108 50 108C41.1634 108 34 100.922 34 92.1912C34 83.4602 49.04 73.8529 50 65C57.2 69.7426 66 83.4602 66 92.1912Z" fill="#F8D421"/>
</svg>
